<?xml version="1.0" encoding="utf-8"?>
<svg version="1.1" baseProfile="full" width="800" height="600" xmlns="http://www.w3.org/2000/svg">
<clipPath>
<rect x="0" y="0" width="800" height="600" fill="rgb(0,0,0)" />
</clipPath>
<text x="230" y="34" fill="rgb(0,0,0)">
Number of Elements Versus Time (1000 samples at each N)</text>
<line x1="192.857" y1="50" x2="192.857" y2="550" stroke="rgb(200,200,200)" />
<line x1="296.032" y1="50" x2="296.032" y2="550" stroke="rgb(200,200,200)" />
<line x1="399.206" y1="50" x2="399.206" y2="550" stroke="rgb(200,200,200)" />
<line x1="502.381" y1="50" x2="502.381" y2="550" stroke="rgb(200,200,200)" />
<line x1="605.556" y1="50" x2="605.556" y2="550" stroke="rgb(200,200,200)" />
<line x1="708.73" y1="50" x2="708.73" y2="550" stroke="rgb(200,200,200)" />
<line x1="100" y1="550" x2="750" y2="550" stroke="rgb(200,200,200)" />
<line x1="100" y1="500" x2="750" y2="500" stroke="rgb(200,200,200)" />
<line x1="100" y1="450" x2="750" y2="450" stroke="rgb(200,200,200)" />
<line x1="100" y1="400" x2="750" y2="400" stroke="rgb(200,200,200)" />
<line x1="100" y1="350" x2="750" y2="350" stroke="rgb(200,200,200)" />
<line x1="100" y1="300" x2="750" y2="300" stroke="rgb(200,200,200)" />
<line x1="100" y1="250" x2="750" y2="250" stroke="rgb(200,200,200)" />
<line x1="100" y1="200" x2="750" y2="200" stroke="rgb(200,200,200)" />
<line x1="100" y1="150" x2="750" y2="150" stroke="rgb(200,200,200)" />
<line x1="100" y1="100" x2="750" y2="100" stroke="rgb(200,200,200)" />
<line x1="100" y1="50.0002" x2="750" y2="50.0002" stroke="rgb(200,200,200)" />
<line x1="100" y1="50" x2="750" y2="50" stroke="rgb(0,0,0)" />
<line x1="110.317" y1="50" x2="110.317" y2="54" stroke="rgb(0,0,0)" />
<line x1="130.952" y1="50" x2="130.952" y2="54" stroke="rgb(0,0,0)" />
<line x1="151.587" y1="50" x2="151.587" y2="54" stroke="rgb(0,0,0)" />
<line x1="172.222" y1="50" x2="172.222" y2="54" stroke="rgb(0,0,0)" />
<text x="192" y="78" fill="rgb(0,0,0)">
1000</text>
<line x1="192.857" y1="50" x2="192.857" y2="58" stroke="rgb(0,0,0)" />
<line x1="213.492" y1="50" x2="213.492" y2="54" stroke="rgb(0,0,0)" />
<line x1="234.127" y1="50" x2="234.127" y2="54" stroke="rgb(0,0,0)" />
<line x1="254.762" y1="50" x2="254.762" y2="54" stroke="rgb(0,0,0)" />
<line x1="275.397" y1="50" x2="275.397" y2="54" stroke="rgb(0,0,0)" />
<text x="296" y="78" fill="rgb(0,0,0)">
2000</text>
<line x1="296.032" y1="50" x2="296.032" y2="58" stroke="rgb(0,0,0)" />
<line x1="316.667" y1="50" x2="316.667" y2="54" stroke="rgb(0,0,0)" />
<line x1="337.302" y1="50" x2="337.302" y2="54" stroke="rgb(0,0,0)" />
<line x1="357.937" y1="50" x2="357.937" y2="54" stroke="rgb(0,0,0)" />
<line x1="378.571" y1="50" x2="378.571" y2="54" stroke="rgb(0,0,0)" />
<text x="399" y="78" fill="rgb(0,0,0)">
3000</text>
<line x1="399.206" y1="50" x2="399.206" y2="58" stroke="rgb(0,0,0)" />
<line x1="419.841" y1="50" x2="419.841" y2="54" stroke="rgb(0,0,0)" />
<line x1="440.476" y1="50" x2="440.476" y2="54" stroke="rgb(0,0,0)" />
<line x1="461.111" y1="50" x2="461.111" y2="54" stroke="rgb(0,0,0)" />
<line x1="481.746" y1="50" x2="481.746" y2="54" stroke="rgb(0,0,0)" />
<text x="502" y="78" fill="rgb(0,0,0)">
4000</text>
<line x1="502.381" y1="50" x2="502.381" y2="58" stroke="rgb(0,0,0)" />
<line x1="523.016" y1="50" x2="523.016" y2="54" stroke="rgb(0,0,0)" />
<line x1="543.651" y1="50" x2="543.651" y2="54" stroke="rgb(0,0,0)" />
<line x1="564.286" y1="50" x2="564.286" y2="54" stroke="rgb(0,0,0)" />
<line x1="584.921" y1="50" x2="584.921" y2="54" stroke="rgb(0,0,0)" />
<text x="605" y="78" fill="rgb(0,0,0)">
5000</text>
<line x1="605.556" y1="50" x2="605.556" y2="58" stroke="rgb(0,0,0)" />
<line x1="626.19" y1="50" x2="626.19" y2="54" stroke="rgb(0,0,0)" />
<line x1="646.825" y1="50" x2="646.825" y2="54" stroke="rgb(0,0,0)" />
<line x1="667.46" y1="50" x2="667.46" y2="54" stroke="rgb(0,0,0)" />
<line x1="688.095" y1="50" x2="688.095" y2="54" stroke="rgb(0,0,0)" />
<text x="708" y="78" fill="rgb(0,0,0)">
6000</text>
<line x1="708.73" y1="50" x2="708.73" y2="58" stroke="rgb(0,0,0)" />
<line x1="729.365" y1="50" x2="729.365" y2="54" stroke="rgb(0,0,0)" />
<line x1="750" y1="50" x2="750" y2="54" stroke="rgb(0,0,0)" />
<text x="409" y="566" fill="rgb(0,0,0)">
N</text>
<line x1="100" y1="50" x2="100" y2="550" stroke="rgb(0,0,0)" />
<text x="32" y="558" fill="rgb(0,0,0)">
-0.100</text>
<line x1="100" y1="550" x2="92" y2="550" stroke="rgb(0,0,0)" />
<line x1="100" y1="540" x2="96" y2="540" stroke="rgb(0,0,0)" />
<line x1="100" y1="530" x2="96" y2="530" stroke="rgb(0,0,0)" />
<line x1="100" y1="520" x2="96" y2="520" stroke="rgb(0,0,0)" />
<line x1="100" y1="510" x2="96" y2="510" stroke="rgb(0,0,0)" />
<text x="31" y="508" fill="rgb(0,0,0)">
-0.090</text>
<line x1="100" y1="500" x2="92" y2="500" stroke="rgb(0,0,0)" />
<line x1="100" y1="490" x2="96" y2="490" stroke="rgb(0,0,0)" />
<line x1="100" y1="480" x2="96" y2="480" stroke="rgb(0,0,0)" />
<line x1="100" y1="470" x2="96" y2="470" stroke="rgb(0,0,0)" />
<line x1="100" y1="460" x2="96" y2="460" stroke="rgb(0,0,0)" />
<text x="31" y="458" fill="rgb(0,0,0)">
-0.080</text>
<line x1="100" y1="450" x2="92" y2="450" stroke="rgb(0,0,0)" />
<line x1="100" y1="440" x2="96" y2="440" stroke="rgb(0,0,0)" />
<line x1="100" y1="430" x2="96" y2="430" stroke="rgb(0,0,0)" />
<line x1="100" y1="420" x2="96" y2="420" stroke="rgb(0,0,0)" />
<line x1="100" y1="410" x2="96" y2="410" stroke="rgb(0,0,0)" />
<text x="31" y="408" fill="rgb(0,0,0)">
-0.070</text>
<line x1="100" y1="400" x2="92" y2="400" stroke="rgb(0,0,0)" />
<line x1="100" y1="390" x2="96" y2="390" stroke="rgb(0,0,0)" />
<line x1="100" y1="380" x2="96" y2="380" stroke="rgb(0,0,0)" />
<line x1="100" y1="370" x2="96" y2="370" stroke="rgb(0,0,0)" />
<line x1="100" y1="360" x2="96" y2="360" stroke="rgb(0,0,0)" />
<text x="31" y="358" fill="rgb(0,0,0)">
-0.060</text>
<line x1="100" y1="350" x2="92" y2="350" stroke="rgb(0,0,0)" />
<line x1="100" y1="340" x2="96" y2="340" stroke="rgb(0,0,0)" />
<line x1="100" y1="330" x2="96" y2="330" stroke="rgb(0,0,0)" />
<line x1="100" y1="320" x2="96" y2="320" stroke="rgb(0,0,0)" />
<line x1="100" y1="310" x2="96" y2="310" stroke="rgb(0,0,0)" />
<text x="31" y="308" fill="rgb(0,0,0)">
-0.050</text>
<line x1="100" y1="300" x2="92" y2="300" stroke="rgb(0,0,0)" />
<line x1="100" y1="290" x2="96" y2="290" stroke="rgb(0,0,0)" />
<line x1="100" y1="280" x2="96" y2="280" stroke="rgb(0,0,0)" />
<line x1="100" y1="270" x2="96" y2="270" stroke="rgb(0,0,0)" />
<line x1="100" y1="260" x2="96" y2="260" stroke="rgb(0,0,0)" />
<text x="31" y="258" fill="rgb(0,0,0)">
-0.040</text>
<line x1="100" y1="250" x2="92" y2="250" stroke="rgb(0,0,0)" />
<line x1="100" y1="240" x2="96" y2="240" stroke="rgb(0,0,0)" />
<line x1="100" y1="230" x2="96" y2="230" stroke="rgb(0,0,0)" />
<line x1="100" y1="220" x2="96" y2="220" stroke="rgb(0,0,0)" />
<line x1="100" y1="210" x2="96" y2="210" stroke="rgb(0,0,0)" />
<text x="31" y="208" fill="rgb(0,0,0)">
-0.030</text>
<line x1="100" y1="200" x2="92" y2="200" stroke="rgb(0,0,0)" />
<line x1="100" y1="190" x2="96" y2="190" stroke="rgb(0,0,0)" />
<line x1="100" y1="180" x2="96" y2="180" stroke="rgb(0,0,0)" />
<line x1="100" y1="170" x2="96" y2="170" stroke="rgb(0,0,0)" />
<line x1="100" y1="160" x2="96" y2="160" stroke="rgb(0,0,0)" />
<text x="31" y="158" fill="rgb(0,0,0)">
-0.020</text>
<line x1="100" y1="150" x2="92" y2="150" stroke="rgb(0,0,0)" />
<line x1="100" y1="140" x2="96" y2="140" stroke="rgb(0,0,0)" />
<line x1="100" y1="130" x2="96" y2="130" stroke="rgb(0,0,0)" />
<line x1="100" y1="120" x2="96" y2="120" stroke="rgb(0,0,0)" />
<line x1="100" y1="110" x2="96" y2="110" stroke="rgb(0,0,0)" />
<text x="32" y="108" fill="rgb(0,0,0)">
-0.010</text>
<line x1="100" y1="100" x2="92" y2="100" stroke="rgb(0,0,0)" />
<line x1="100" y1="90.0002" x2="96" y2="90.0002" stroke="rgb(0,0,0)" />
<line x1="100" y1="80.0002" x2="96" y2="80.0002" stroke="rgb(0,0,0)" />
<line x1="100" y1="70.0002" x2="96" y2="70.0002" stroke="rgb(0,0,0)" />
<line x1="100" y1="60.0002" x2="96" y2="60.0002" stroke="rgb(0,0,0)" />
<text x="31" y="58" fill="rgb(0,0,0)">
-0.000</text>
<line x1="100" y1="50.0002" x2="92" y2="50.0002" stroke="rgb(0,0,0)" />
<text x="31" y="367" transform="rotate(-90,31,367)">Time (nanoseconds)</text>
<text x="120" y="66" fill="rgb(200,0,100)">
Linear Search</text>
<text x="120" y="98" fill="rgb(100,20,220)">
Binary Search (w/ Sort Amortized)</text>
<clipPath>
<rect x="100" y="50" width="650" height="500" fill="rgb(0,0,0)" />
</clipPath>
<line x1="100" y1="50" x2="110.317" y2="50" stroke="rgb(200,0,100)" />
<line x1="110.317" y1="50" x2="130.952" y2="50" stroke="rgb(200,0,100)" />
<line x1="130.952" y1="50" x2="172.222" y2="50" stroke="rgb(200,0,100)" />
<line x1="172.222" y1="50" x2="254.762" y2="50" stroke="rgb(200,0,100)" />
<line x1="254.762" y1="50" x2="419.841" y2="50" stroke="rgb(200,0,100)" />
<line x1="419.841" y1="50" x2="750" y2="50" stroke="rgb(200,0,100)" />
<line x1="100" y1="50" x2="110.317" y2="50" stroke="rgb(100,20,220)" />
<line x1="110.317" y1="50" x2="130.952" y2="50" stroke="rgb(100,20,220)" />
<line x1="130.952" y1="50" x2="172.222" y2="50" stroke="rgb(100,20,220)" />
<line x1="172.222" y1="50" x2="254.762" y2="50" stroke="rgb(100,20,220)" />
<line x1="254.762" y1="50" x2="419.841" y2="50" stroke="rgb(100,20,220)" />
<line x1="419.841" y1="50" x2="750" y2="50" stroke="rgb(100,20,220)" />
</svg>

